<svg width="16" height="22" viewBox="0 0 20 22" fill="none" xmlns="http://www.w3.org/2000/svg">
<path fill-rule="evenodd" clip-rule="evenodd" d="M14.2929 0.292893C14.6834 -0.0976311 15.3166 -0.0976311 15.7071 0.292893L19.7071 4.29289C20.0976 4.68342 20.0976 5.31658 19.7071 5.70711L15.7071 9.70711C15.3166 10.0976 14.6834 10.0976 14.2929 9.70711C13.9024 9.31658 13.9024 8.68342 14.2929 8.29289L17.5858 5L14.2929 1.70711C13.9024 1.31658 13.9024 0.683417 14.2929 0.292893Z" fill="black"/>
<path fill-rule="evenodd" clip-rule="evenodd" d="M5 6C4.20435 6 3.44129 6.31607 2.87868 6.87868C2.31607 7.44129 2 8.20435 2 9V11C2 11.5523 1.55228 12 1 12C0.447715 12 0 11.5523 0 11V9C0 7.67392 0.526784 6.40215 1.46447 5.46447C2.40215 4.52678 3.67392 4 5 4H19C19.5523 4 20 4.44772 20 5C20 5.55228 19.5523 6 19 6H5Z" fill="black"/>
<path fill-rule="evenodd" clip-rule="evenodd" d="M7.49718 8.13561C7.80499 7.95655 8.1848 7.9547 8.49435 8.13074L14.2443 11.4007C14.5569 11.5785 14.75 11.9104 14.75 12.27C14.75 12.6296 14.5569 12.9615 14.2443 13.1393L8.49435 16.4093C8.1848 16.5853 7.80499 16.5834 7.49718 16.4044C7.18937 16.2253 7 15.8961 7 15.54V9C7 8.6439 7.18937 8.31466 7.49718 8.13561ZM9 10.7191V13.8209L11.7271 12.27L9 10.7191Z" fill="black"/>
<rect y="18" width="20" height="4" rx="0.5" fill="black"/>
<rect x="3" y="19" width="2" height="2" fill="white"/>
<rect x="7" y="19" width="2" height="2" fill="white"/>
<rect x="11" y="19" width="2" height="2" fill="white"/>
<rect x="15" y="19" width="2" height="2" fill="white"/>
</svg>
