<svg width="22" height="22" viewBox="0 0 26 26" fill="none" xmlns="http://www.w3.org/2000/svg">
<path fill-rule="evenodd" clip-rule="evenodd" d="M4.53845 6.16345C4.8432 5.85871 5.25652 5.6875 5.6875 5.6875H13.8125C14.028 5.6875 14.2347 5.7731 14.387 5.92548L18.4495 9.98798C18.6019 10.1403 18.6875 10.347 18.6875 10.5625V21.9375C18.6875 22.3685 18.5163 22.7818 18.2115 23.0865C17.9068 23.3913 17.4935 23.5625 17.0625 23.5625H5.6875C5.25652 23.5625 4.8432 23.3913 4.53845 23.0865C4.2337 22.7818 4.0625 22.3685 4.0625 21.9375V7.3125C4.0625 6.88152 4.23371 6.4682 4.53845 6.16345ZM13.476 7.3125L5.6875 7.3125L5.6875 21.9375H17.0625V10.899L13.476 7.3125Z" fill="black"/>
<path fill-rule="evenodd" clip-rule="evenodd" d="M7.78845 2.91345C8.0932 2.60871 8.50652 2.4375 8.9375 2.4375H17.0625C17.278 2.4375 17.4847 2.5231 17.637 2.67548L21.6995 6.73798C21.8519 6.89035 21.9375 7.09701 21.9375 7.3125V18.6875C21.9375 19.1185 21.7663 19.5318 21.4615 19.8365C21.1568 20.1413 20.7435 20.3125 20.3125 20.3125H17.875C17.4263 20.3125 17.0625 19.9487 17.0625 19.5C17.0625 19.0513 17.4263 18.6875 17.875 18.6875H20.3125V7.64905L16.726 4.0625L8.9375 4.0625L8.9375 6.5C8.9375 6.94873 8.57373 7.3125 8.125 7.3125C7.67627 7.3125 7.3125 6.94873 7.3125 6.5V4.0625C7.3125 3.63152 7.48371 3.2182 7.78845 2.91345Z" fill="black"/>
<path fill-rule="evenodd" clip-rule="evenodd" d="M8.125 15.4375C8.125 14.9888 8.48877 14.625 8.9375 14.625H13.8125C14.2612 14.625 14.625 14.9888 14.625 15.4375C14.625 15.8862 14.2612 16.25 13.8125 16.25H8.9375C8.48877 16.25 8.125 15.8862 8.125 15.4375Z" fill="black"/>
<path fill-rule="evenodd" clip-rule="evenodd" d="M8.125 18.6875C8.125 18.2388 8.48877 17.875 8.9375 17.875H13.8125C14.2612 17.875 14.625 18.2388 14.625 18.6875C14.625 19.1362 14.2612 19.5 13.8125 19.5H8.9375C8.48877 19.5 8.125 19.1362 8.125 18.6875Z" fill="black"/>
</svg>
