<svg width="48" height="48" viewBox="0 0 48 48" fill="none" xmlns="http://www.w3.org/2000/svg">
<path d="M46.0276 14.7225C45.9675 14.5857 45.8809 14.4622 45.7726 14.3593C45.6644 14.2564 45.5367 14.1761 45.3971 14.123C45.2574 14.07 45.1086 14.0452 44.9594 14.0503C44.8101 14.0554 44.6633 14.0901 44.5276 14.1525L43.8601 14.46L43.4926 14.6325C41.6027 15.6663 39.4737 16.1836 37.3201 16.1325C35.1642 16.1829 33.033 15.6655 31.1401 14.6325C28.9491 13.4509 26.4887 12.859 24.0001 12.915C21.5047 12.8545 19.0365 13.4438 16.8376 14.625C14.9461 15.6617 12.8139 16.1793 10.6576 16.125C8.5069 16.1713 6.38156 15.6542 4.49259 14.625L4.1251 14.4525C3.9076 14.34 3.6826 14.235 3.4576 14.1375C3.28516 14.0607 3.09619 14.0285 2.90806 14.044C2.71994 14.0594 2.53873 14.1219 2.38111 14.2258C2.22348 14.3296 2.09452 14.4714 2.00609 14.6382C1.91767 14.8049 1.87261 14.9912 1.8751 15.18V42C1.87708 43.0934 2.31231 44.1415 3.08547 44.9146C3.85863 45.6877 4.90669 46.123 6.0001 46.125H42.0001C43.0935 46.123 44.1416 45.6877 44.9148 44.9146C45.6879 44.1415 46.1231 43.0934 46.1251 42V15.18C46.1253 15.0223 46.092 14.8664 46.0276 14.7225Z" fill="#275996"/>
<path d="M42 4.875H6C4.90659 4.87698 3.85853 5.31221 3.08537 6.08537C2.31221 6.85853 1.87698 7.90657 1.875 9V15.18C1.87505 15.3974 1.93813 15.6103 2.05659 15.7926C2.17506 15.9749 2.34383 16.1191 2.5425 16.2075L3.525 16.665L4.125 16.95C6.15454 17.9475 8.39708 18.4341 10.6575 18.3675C13.1505 18.4283 15.6164 17.839 17.8125 16.6575C19.7078 15.6235 21.8417 15.1061 24 15.1575C26.1559 15.1071 28.2871 15.6244 30.18 16.6575C32.3761 17.839 34.842 18.4283 37.335 18.3675C39.5976 18.4314 41.8419 17.945 43.875 16.95C44.085 16.86 44.28 16.7625 44.4825 16.665C44.805 16.5075 45.12 16.3575 45.4575 16.2075C45.6562 16.1191 45.8249 15.9749 45.9434 15.7926C46.0619 15.6103 46.1249 15.3974 46.125 15.18V9C46.1231 7.90657 45.6878 6.85853 44.9146 6.08537C44.1415 5.31221 43.0934 4.87698 42 4.875Z" fill="#0099D6"/>
<path d="M14.895 21.375H9C8.3787 21.375 7.875 21.8787 7.875 22.5V28.395C7.875 29.0163 8.3787 29.52 9 29.52H14.895C15.5163 29.52 16.02 29.0163 16.02 28.395V22.5C16.02 21.8787 15.5163 21.375 14.895 21.375Z" fill="#97CCEF"/>
<path d="M26.9477 21.375H21.0527C20.4314 21.375 19.9277 21.8787 19.9277 22.5V28.395C19.9277 29.0163 20.4314 29.52 21.0527 29.52H26.9477C27.5691 29.52 28.0727 29.0163 28.0727 28.395V22.5C28.0727 21.8787 27.5691 21.375 26.9477 21.375Z" fill="#97CCEF"/>
<path d="M39.0005 21.375H33.1055C32.4842 21.375 31.9805 21.8787 31.9805 22.5V28.395C31.9805 29.0163 32.4842 29.52 33.1055 29.52H39.0005C39.6218 29.52 40.1255 29.0163 40.1255 28.395V22.5C40.1255 21.8787 39.6218 21.375 39.0005 21.375Z" fill="#97CCEF"/>
<path d="M14.895 32.73H9C8.3787 32.73 7.875 33.2337 7.875 33.855V39.75C7.875 40.3714 8.3787 40.875 9 40.875H14.895C15.5163 40.875 16.02 40.3714 16.02 39.75V33.855C16.02 33.2337 15.5163 32.73 14.895 32.73Z" fill="#97CCEF"/>
<path d="M26.9477 32.73H21.0527C20.4314 32.73 19.9277 33.2337 19.9277 33.855V39.75C19.9277 40.3714 20.4314 40.875 21.0527 40.875H26.9477C27.5691 40.875 28.0727 40.3714 28.0727 39.75V33.855C28.0727 33.2337 27.5691 32.73 26.9477 32.73Z" fill="#97CCEF"/>
<path d="M39.0005 32.73H33.1055C32.4842 32.73 31.9805 33.2337 31.9805 33.855V39.75C31.9805 40.3714 32.4842 40.875 33.1055 40.875H39.0005C39.6218 40.875 40.1255 40.3714 40.1255 39.75V33.855C40.1255 33.2337 39.6218 32.73 39.0005 32.73Z" fill="#97CCEF"/>
<path d="M33.5922 1.84497C33.4419 1.84492 33.2932 1.87498 33.1546 1.93338C33.0162 1.99179 32.8908 2.07735 32.7859 2.18501C32.6811 2.29268 32.5988 2.42026 32.5441 2.56023C32.4893 2.7002 32.4632 2.84973 32.4672 2.99997V9C32.4672 9.29835 32.5858 9.58448 32.7967 9.79545C33.0077 10.0064 33.2938 10.125 33.5922 10.125C33.8906 10.125 34.1767 10.0064 34.3877 9.79545C34.5987 9.58448 34.7172 9.29835 34.7172 9V2.99997C34.7202 2.84999 34.6933 2.70092 34.6383 2.56141C34.5832 2.42189 34.5009 2.29471 34.3962 2.18726C34.2916 2.0798 34.1665 1.99421 34.0285 1.93545C33.8905 1.87669 33.7422 1.84594 33.5922 1.84497Z" fill="#97CCEF"/>
<path d="M24.0004 1.84497C23.8501 1.84492 23.7013 1.87498 23.5628 1.93338C23.4243 1.99179 23.299 2.07735 23.1941 2.18501C23.0892 2.29268 23.007 2.42026 22.9523 2.56023C22.8975 2.7002 22.8714 2.84973 22.8754 2.99997V9C22.8754 9.29835 22.9939 9.58448 23.2049 9.79545C23.4158 10.0064 23.702 10.125 24.0004 10.125C24.2987 10.125 24.5849 10.0064 24.7959 9.79545C25.0069 9.58448 25.1254 9.29835 25.1254 9V2.99997C25.1294 2.84973 25.1033 2.7002 25.0485 2.56023C24.9938 2.42026 24.9116 2.29268 24.8067 2.18501C24.7018 2.07735 24.5765 1.99179 24.4379 1.93338C24.2995 1.87498 24.1507 1.84492 24.0004 1.84497Z" fill="#97CCEF"/>
<path d="M14.4065 1.84497C14.2565 1.84594 14.1081 1.87669 13.9701 1.93545C13.8321 1.99421 13.7071 2.0798 13.6025 2.18726C13.4978 2.29471 13.4155 2.42189 13.3605 2.56141C13.3053 2.70092 13.2785 2.84999 13.2815 2.99997V9C13.2815 9.29835 13.4 9.58448 13.611 9.79545C13.8219 10.0064 14.1081 10.125 14.4065 10.125C14.7048 10.125 14.991 10.0064 15.2019 9.79545C15.4129 9.58448 15.5315 9.29835 15.5315 9V2.99997C15.5355 2.84973 15.5094 2.7002 15.4546 2.56023C15.3999 2.42026 15.3177 2.29268 15.2127 2.18501C15.1079 2.07735 14.9825 1.99179 14.844 1.93338C14.7055 1.87498 14.5568 1.84492 14.4065 1.84497Z" fill="#97CCEF"/>
</svg>
