<svg width="32" height="31" viewBox="0 0 32 31" fill="none" xmlns="http://www.w3.org/2000/svg">
<path d="M19.0482 0.964474C19.669 0.964424 20.279 1.12657 20.8177 1.43484C21.3565 1.74311 21.8054 2.18681 22.1199 2.72197L23.4087 4.91806H26.6878C28.0523 4.91806 29.3609 5.45999 30.3259 6.42468C31.2909 7.38937 31.8332 8.69782 31.8337 10.0623V25.104C31.8337 25.7797 31.7006 26.4489 31.442 27.0732C31.1834 27.6975 30.8043 28.2648 30.3265 28.7426C29.8486 29.2205 29.2814 29.5995 28.6571 29.8581C28.0327 30.1167 27.3636 30.2498 26.6878 30.2498H5.31283C3.94807 30.2498 2.6392 29.7077 1.67417 28.7426C0.709141 27.7776 0.166992 26.4687 0.166992 25.104V10.0623C0.166992 8.69755 0.709141 7.38868 1.67417 6.42365C2.6392 5.45862 3.94807 4.91647 5.31283 4.91647H8.60616L9.99158 2.66181C10.3101 2.14282 10.7564 1.71415 11.2878 1.41673C11.8191 1.1193 12.4179 0.963052 13.0268 0.962891H19.0482V0.964474ZM19.0482 3.33947H13.0268C12.8536 3.33962 12.6824 3.37767 12.5254 3.45098C12.3684 3.52428 12.2294 3.63106 12.118 3.76381L12.0151 3.90631L10.2845 6.72464C10.1784 6.89773 10.0296 7.04073 9.85252 7.13996C9.67539 7.2392 9.47578 7.29137 9.27274 7.29147H5.31441C4.95041 7.29127 4.58993 7.36278 4.25357 7.50194C3.91722 7.64109 3.61157 7.84516 3.35411 8.10247C3.09665 8.35979 2.89241 8.66531 2.75306 9.00159C2.61371 9.33787 2.54199 9.6983 2.54199 10.0623V25.104C2.54199 26.6335 3.78333 27.8748 5.31283 27.8748H26.6878C27.4227 27.8748 28.1275 27.5829 28.6471 27.0632C29.1667 26.5436 29.4587 25.8388 29.4587 25.104V10.0623C29.4587 9.32744 29.1667 8.62266 28.6471 8.10303C28.1275 7.5834 27.4227 7.29147 26.6878 7.29147H22.7295C22.5225 7.29158 22.3191 7.23758 22.1394 7.13482C21.9597 7.03206 21.81 6.88411 21.7051 6.70564L20.0711 3.92372C19.9663 3.74549 19.8169 3.59769 19.6375 3.49494C19.4581 3.39219 19.255 3.33806 19.0482 3.33789V3.33947ZM16.0003 9.66647C17.89 9.66647 19.7023 10.4171 21.0385 11.7533C22.3747 13.0895 23.1253 14.9018 23.1253 16.7915C23.1253 18.6811 22.3747 20.4934 21.0385 21.8296C19.7023 23.1658 17.89 23.9165 16.0003 23.9165C14.1107 23.9165 12.2984 23.1658 10.9622 21.8296C9.62599 20.4934 8.87533 18.6811 8.87533 16.7915C8.87533 14.9018 9.62599 13.0895 10.9622 11.7533C12.2984 10.4171 14.1107 9.66647 16.0003 9.66647ZM16.0003 12.0415C15.3765 12.0415 14.7589 12.1643 14.1826 12.403C13.6063 12.6418 13.0826 12.9916 12.6416 13.4327C12.2005 13.8738 11.8506 14.3974 11.6119 14.9737C11.3732 15.55 11.2503 16.1677 11.2503 16.7915C11.2503 17.4153 11.3732 18.0329 11.6119 18.6092C11.8506 19.1855 12.2005 19.7092 12.6416 20.1502C13.0826 20.5913 13.6063 20.9412 14.1826 21.1799C14.7589 21.4186 15.3765 21.5415 16.0003 21.5415C17.2601 21.5415 18.4683 21.041 19.3591 20.1502C20.2499 19.2594 20.7503 18.0513 20.7503 16.7915C20.7503 15.5317 20.2499 14.3235 19.3591 13.4327C18.4683 12.5419 17.2601 12.0415 16.0003 12.0415Z" fill="#333333"/>
</svg>
