<svg width="26" height="26" viewBox="0 0 26 26" fill="none" xmlns="http://www.w3.org/2000/svg">
<path fill-rule="evenodd" clip-rule="evenodd" d="M13.5483 4.1005C11.3779 3.96448 9.23246 4.62535 7.5148 5.95905C5.79714 7.29274 4.62536 9.20753 4.21943 11.344C3.81351 13.4804 4.20135 15.6915 5.31016 17.5622C5.42371 17.7538 5.45365 17.9836 5.39298 18.1979L4.44138 21.5589L7.80237 20.6073L8.02371 21.389L8.43799 20.6901C10.3087 21.7989 12.5198 22.1867 14.6563 21.7808C16.7927 21.3749 18.7075 20.2031 20.0412 18.4854C21.3749 16.7678 22.0358 14.6224 21.8997 12.452C21.7637 10.2816 20.8402 8.23549 19.3025 6.69778C17.7647 5.16007 15.7186 4.23652 13.5483 4.1005ZM7.91737 22.2636C10.0612 23.4388 12.5506 23.835 14.9596 23.3772C17.4849 22.8974 19.7482 21.5123 21.3247 19.482C22.9012 17.4517 23.6823 14.9158 23.5215 12.3503C23.3608 9.78489 22.2691 7.36634 20.4515 5.54873C18.6339 3.73112 16.2153 2.63946 13.6499 2.47868C11.0844 2.3179 8.54851 3.09907 6.5182 4.67553C4.48789 6.25199 3.10281 8.51532 2.62299 11.0406C2.16527 13.4497 2.5614 15.9391 3.73667 18.0829L2.87554 21.1243C2.79533 21.4012 2.79069 21.6945 2.86214 21.9738C2.93393 22.2545 3.0799 22.5106 3.28474 22.7155C3.48959 22.9203 3.74577 23.0663 4.02642 23.1381C4.30575 23.2095 4.5991 23.2049 4.876 23.1247L7.91737 22.2636Z" fill="black"/>
<path d="M13 14.2188C13.6731 14.2188 14.2188 13.6731 14.2188 13C14.2188 12.3269 13.6731 11.7812 13 11.7812C12.3269 11.7812 11.7812 12.3269 11.7812 13C11.7812 13.6731 12.3269 14.2188 13 14.2188Z" fill="black"/>
<path d="M8.125 14.2188C8.7981 14.2188 9.34375 13.6731 9.34375 13C9.34375 12.3269 8.7981 11.7812 8.125 11.7812C7.4519 11.7812 6.90625 12.3269 6.90625 13C6.90625 13.6731 7.4519 14.2188 8.125 14.2188Z" fill="black"/>
<path d="M17.875 14.2188C18.5481 14.2188 19.0938 13.6731 19.0938 13C19.0938 12.3269 18.5481 11.7812 17.875 11.7812C17.2019 11.7812 16.6562 12.3269 16.6562 13C16.6562 13.6731 17.2019 14.2188 17.875 14.2188Z" fill="black"/>
</svg>
