<svg width="20" height="26" viewBox="0 0 24 26" fill="none" xmlns="http://www.w3.org/2000/svg">
<path d="M14.3432 0.00902061C14.3213 0.00707725 14.3023 0.00983034 14.2815 0.00956043L14.2771 0.00902061C8.10312 -0.204695 1.61398 3.38329 2.17512 10.3255C2.17733 10.3536 2.1843 10.3785 2.18937 10.4048C2.18127 10.4765 2.18127 10.5518 2.19871 10.6335C2.53723 12.2177 2.01765 13.6105 0.717062 14.5818C0.657304 14.6264 0.611527 14.6772 0.572066 14.7301C0.440619 14.8167 0.336758 14.9491 0.28094 15.1095C0.0372645 15.8096 0.222315 16.5223 0.781625 17.0091C0.873988 17.0894 0.981035 17.1439 1.09191 17.1733C1.45306 17.3728 1.83066 17.5055 2.22279 17.5981C2.14219 18.0329 2.18181 18.4726 2.39127 18.8865C2.00022 19.6486 2.25982 20.4893 3.03176 20.9482C3.07533 20.9739 3.11878 20.9937 3.16138 21.0087C3.29255 21.1647 3.30518 21.4152 3.25692 21.6562C3.24197 21.7299 3.24008 21.8034 3.2457 21.8752C3.24229 21.9407 3.24435 22.007 3.25692 22.0737C3.46071 23.1414 4.37203 23.7307 5.41546 23.7497C5.47154 23.7508 5.52347 23.745 5.57238 23.7351C5.62064 23.7373 5.67122 23.7343 5.72342 23.7261C7.39887 23.4545 9.30649 23.606 9.93587 25.4465C10.0615 25.8141 10.3979 25.9388 10.699 25.8903C10.8004 25.9662 10.9341 26.0098 11.1027 25.998C14.139 25.7858 17.1483 25.3448 20.1628 24.9399C20.2694 24.9256 20.3618 24.8911 20.4413 24.8426C20.8069 24.7285 21.1022 24.3193 20.8659 23.8788C18.8514 20.1233 22.9352 16.0263 23.7099 12.4186C23.7266 12.3407 23.7269 12.2684 23.7203 12.1996C24.5397 6.27387 20.4393 0.558074 14.3432 0.00902061ZM22.4347 11.935C22.4265 11.9899 22.4253 12.0424 22.4287 12.0928C21.5868 15.953 17.8953 19.6848 19.3569 23.7267C16.6116 24.0993 13.8679 24.4822 11.1027 24.6758C11.0829 24.6771 11.066 24.6823 11.0473 24.6854C10.0589 22.4855 7.7592 22.0911 5.48385 22.4354C5.46112 22.4329 5.44002 22.4279 5.41556 22.4272C5.15656 22.4225 5.02139 22.3957 4.81911 22.272C4.83677 22.2778 4.7152 22.1808 4.7166 22.1824C4.69922 22.1648 4.68837 22.1544 4.68043 22.1476C4.68043 22.1423 4.67347 22.1267 4.64794 22.0853C4.60945 22.0236 4.58105 21.9368 4.55746 21.8386C4.67477 21.0283 4.44469 20.3244 3.76571 19.8063C3.71113 19.7649 3.65002 19.7417 3.58686 19.7263C3.56727 19.7098 3.54821 19.694 3.52764 19.6732C3.53132 19.6748 3.52791 19.6666 3.51609 19.6476C3.51609 19.6307 3.51501 19.6255 3.51307 19.6271C3.52117 19.592 3.52899 19.5569 3.5413 19.5229C3.5413 19.5229 3.64014 19.3686 3.67275 19.3225C3.76414 19.1939 3.78282 19.038 3.75388 18.888C3.78104 18.7397 3.76171 18.5854 3.67275 18.4566C3.4226 18.0942 3.4721 17.7858 3.67275 17.4048C3.96042 16.8593 3.44246 16.3618 2.98307 16.4125C2.97827 16.4119 2.97406 16.4105 2.96936 16.4097C2.50366 16.3483 2.05339 16.212 1.64977 15.9709C1.62083 15.9539 1.59249 15.9431 1.5641 15.9305C1.54396 15.9012 1.52518 15.8713 1.50833 15.8401C1.50547 15.8319 1.50326 15.8245 1.49932 15.8124C1.49602 15.797 1.4937 15.7869 1.49149 15.777C1.49041 15.7466 1.49095 15.7167 1.49262 15.6863C1.49484 15.6781 1.49905 15.6591 1.50472 15.6295C3.18437 14.3173 3.90584 12.5133 3.49714 10.4048C3.49768 10.3784 3.50071 10.3537 3.49849 10.3256C2.99338 4.08532 8.79901 1.14195 14.2768 1.33164C14.2944 1.33218 14.3095 1.32916 14.3265 1.32862C14.3322 1.32916 14.3369 1.33104 14.3432 1.33164C19.5438 1.8001 23.1753 6.87216 22.4347 11.935Z" fill="black"/>
<path d="M12.9454 14.8984C11.4518 14.8984 11.4518 17.2144 12.9454 17.2144C14.4391 17.2145 14.4391 14.8984 12.9454 14.8984Z" fill="black"/>
<path d="M8.11447 4.76312C7.6146 5.14624 7.34998 5.75149 7.69908 6.34745C7.98826 6.84085 8.78115 7.14801 9.28362 6.76284C10.8129 5.59056 13.0772 5.18278 14.6945 6.44392C15.0248 6.70157 15.1893 6.89445 15.3653 7.21791C15.428 7.3329 15.4319 7.4949 15.4136 7.60826C15.4064 7.57522 15.2789 7.87633 15.3445 7.79358C15.2137 7.95887 15.0577 8.08363 14.8834 8.1972C14.2913 8.58426 13.5769 8.74739 12.8947 8.89255C12.7329 8.92683 12.6008 8.98794 12.4882 9.06346C12.0376 9.17941 11.6584 9.53456 11.6584 10.138V12.0681C11.6584 13.5615 13.9747 13.5615 13.9747 12.0681V11.0182C15.3302 10.6785 16.7803 10.0627 17.4372 8.77255C18.0769 7.51541 17.62 6.18539 16.7401 5.18813C14.5944 2.75536 10.5325 2.9097 8.11447 4.76312Z" fill="black"/>
</svg>
