<svg width="48" height="48" viewBox="0 0 48 48" fill="none" xmlns="http://www.w3.org/2000/svg">
<path d="M23.8397 47.9999C37.006 47.9999 47.6794 37.2547 47.6794 23.9999C47.6794 10.745 37.006 -0.00012207 23.8397 -0.00012207C10.6734 -0.00012207 0 10.745 0 23.9999C0 37.2547 10.6734 47.9999 23.8397 47.9999Z" fill="#ECF0F1"/>
<path d="M23.8397 3.31022C35.1718 3.31022 44.3912 12.5916 44.3912 23.9999C44.3912 35.4082 35.1718 44.6895 23.8397 44.6895C12.5076 44.6895 3.28823 35.4082 3.28823 23.9999C3.28823 12.5916 12.5076 3.31022 23.8397 3.31022ZM23.8397 -0.00012207C10.6736 -0.00012207 0 10.7453 0 23.9999C0 37.2545 10.6736 47.9999 23.8397 47.9999C37.0058 47.9999 47.6794 37.2545 47.6794 23.9999C47.6794 10.7453 37.0058 -0.00012207 23.8397 -0.00012207Z" fill="#545E73"/>
<path d="M23.8377 4.86438C23.3839 4.86438 23.0156 5.23431 23.0156 5.69197V6.51955C23.0156 6.97721 23.3839 7.34714 23.8377 7.34714C24.2915 7.34714 24.6597 6.97721 24.6597 6.51955V5.69197C24.6597 5.23514 24.2915 4.86438 23.8377 4.86438Z" fill="#8697CB"/>
<path d="M23.8377 40.4506C23.3839 40.4506 23.0156 40.8205 23.0156 41.2781V42.1057C23.0156 42.5634 23.3839 42.9333 23.8377 42.9333C24.2915 42.9333 24.6597 42.5634 24.6597 42.1057V41.2781C24.6597 40.8213 24.2915 40.4506 23.8377 40.4506Z" fill="#8697CB"/>
<path d="M41.9254 23.0714H41.1033C40.6495 23.0714 40.2812 23.4413 40.2812 23.899C40.2812 24.3567 40.6495 24.7266 41.1033 24.7266H41.9254C42.3791 24.7266 42.7474 24.3567 42.7474 23.899C42.7474 23.4413 42.3791 23.0714 41.9254 23.0714Z" fill="#8697CB"/>
<path d="M6.57576 23.0714H5.7537C5.29992 23.0714 4.93164 23.4413 4.93164 23.899C4.93164 24.3567 5.29992 24.7266 5.7537 24.7266H6.57576C7.02953 24.7266 7.39782 24.3567 7.39782 23.899C7.39782 23.4413 7.02953 23.0714 6.57576 23.0714Z" fill="#8697CB"/>
<path d="M36.0449 10.4398L35.4637 11.0249C35.1423 11.3485 35.1423 11.8716 35.4637 12.1951C35.624 12.3565 35.8345 12.4376 36.0449 12.4376C36.2554 12.4376 36.4658 12.3565 36.6261 12.1951L37.2073 11.61C37.5287 11.2865 37.5287 10.7634 37.2073 10.4398C36.8859 10.1162 36.3663 10.1162 36.0449 10.4398Z" fill="#8697CB"/>
<path d="M11.0508 35.6034L10.4696 36.1885C10.1482 36.5121 10.1482 37.0351 10.4696 37.3587C10.6299 37.5201 10.8403 37.6012 11.0508 37.6012C11.2612 37.6012 11.4717 37.5201 11.632 37.3587L12.2132 36.7736C12.5346 36.45 12.5346 35.927 12.2132 35.6034C11.8917 35.2798 11.3714 35.2798 11.0508 35.6034Z" fill="#8697CB"/>
<path d="M36.6261 35.6034C36.3047 35.2798 35.7851 35.2798 35.4637 35.6034C35.1423 35.927 35.1423 36.45 35.4637 36.7736L36.0449 37.3587C36.2052 37.5201 36.4157 37.6012 36.6261 37.6012C36.8366 37.6012 37.047 37.5201 37.2073 37.3587C37.5287 37.0351 37.5287 36.5121 37.2073 36.1885L36.6261 35.6034Z" fill="#8697CB"/>
<path d="M11.632 10.4398C11.3106 10.1162 10.791 10.1162 10.4696 10.4398C10.1482 10.7634 10.1482 11.2865 10.4696 11.61L11.0508 12.1951C11.2111 12.3565 11.4215 12.4376 11.632 12.4376C11.8424 12.4376 12.0529 12.3565 12.2132 12.1951C12.5346 11.8716 12.5346 11.3485 12.2132 11.0249L11.632 10.4398Z" fill="#8697CB"/>
<path d="M21.3731 24.7273H14.7967C14.3421 24.7273 13.9746 24.3574 13.9746 23.8997C13.9746 23.4421 14.3421 23.0721 14.7967 23.0721H21.3731C21.8277 23.0721 22.1952 23.4421 22.1952 23.8997C22.1952 24.3574 21.8277 24.7273 21.3731 24.7273Z" fill="#545E73"/>
<path d="M23.8396 22.2446C23.385 22.2446 23.0176 21.8747 23.0176 21.417V12.3135C23.0176 11.8559 23.385 11.486 23.8396 11.486C24.2942 11.486 24.6617 11.8559 24.6617 12.3135V21.417C24.6617 21.8738 24.2942 22.2446 23.8396 22.2446Z" fill="#545E73"/>
<path d="M23.839 27.21C22.0256 27.21 20.5508 25.7254 20.5508 23.8997C20.5508 22.074 22.0256 20.5894 23.839 20.5894C25.6525 20.5894 27.1272 22.074 27.1272 23.8997C27.1272 25.7254 25.6525 27.21 23.839 27.21ZM23.839 22.2445C22.9323 22.2445 22.1949 22.9869 22.1949 23.8997C22.1949 24.8125 22.9323 25.5549 23.839 25.5549C24.7457 25.5549 25.4831 24.8125 25.4831 23.8997C25.4831 22.9869 24.7457 22.2445 23.839 22.2445Z" fill="#545E73"/>
<path d="M38.9567 47.9999C43.9508 47.9999 47.9994 43.9241 47.9994 38.8964C47.9994 33.8687 43.9508 29.793 38.9567 29.793C33.9626 29.793 29.9141 33.8687 29.9141 38.8964C29.9141 43.9241 33.9626 47.9999 38.9567 47.9999Z" fill="#B1D3EF"/>
<path d="M43.8892 38.0688H39.7789V33.9309C39.7789 33.474 39.4114 33.1033 38.9568 33.1033C38.5022 33.1033 38.1348 33.474 38.1348 33.9309V38.8964C38.1348 39.3532 38.5022 39.724 38.9568 39.724H43.8892C44.3438 39.724 44.7112 39.3532 44.7112 38.8964C44.7112 38.4395 44.343 38.0688 43.8892 38.0688Z" fill="white"/>
</svg>
