<svg width="20" height="25" viewBox="0 0 22 27" fill="none" xmlns="http://www.w3.org/2000/svg">
<path fill-rule="evenodd" clip-rule="evenodd" d="M2.75 11.25C2.75 10.8358 3.08579 10.5 3.5 10.5H8C8.99456 10.5 9.94839 10.8951 10.6517 11.5983C11.3549 12.3016 11.75 13.2554 11.75 14.25V24.75C11.75 25.1642 11.4142 25.5 11 25.5C10.5858 25.5 10.25 25.1642 10.25 24.75C10.25 24.3522 10.092 23.9706 9.81066 23.6893C9.52936 23.408 9.14783 23.25 8.75 23.25H3.5C3.08579 23.25 2.75 22.9142 2.75 22.5V11.25ZM10.25 22.1519V14.25C10.25 13.6533 10.0129 13.081 9.59099 12.659C9.16903 12.2371 8.59674 12 8 12H4.25V21.75H8.75C9.28117 21.75 9.79782 21.8909 10.25 22.1519Z" fill="black"/>
<path fill-rule="evenodd" clip-rule="evenodd" d="M11.3483 11.5983C12.0516 10.8951 13.0054 10.5 14 10.5H18.5C18.9142 10.5 19.25 10.8358 19.25 11.25V22.5C19.25 22.9142 18.9142 23.25 18.5 23.25H13.25C12.8522 23.25 12.4706 23.408 12.1893 23.6893C11.908 23.9706 11.75 24.3522 11.75 24.75C11.75 25.1642 11.4142 25.5 11 25.5C10.5858 25.5 10.25 25.1642 10.25 24.75V14.25C10.25 13.2554 10.6451 12.3016 11.3483 11.5983ZM11.75 22.1519C12.2022 21.8909 12.7188 21.75 13.25 21.75H17.75V12H14C13.4033 12 12.831 12.2371 12.409 12.659C11.9871 13.081 11.75 13.6533 11.75 14.25V22.1519Z" fill="black"/>
<path d="M21.8768 8.43532C21.7149 8.16023 21.4061 7.94156 21.0175 7.82695V3.88121C21.0918 3.80252 21.142 3.71371 21.1648 3.62048C21.1631 3.44337 21.0207 3.28204 20.7966 3.20331L10.8287 0.0397717C10.6736 -0.0132572 10.4928 -0.0132572 10.3377 0.0397717L0.369805 3.20331C0.131963 3.27087 -0.0168799 3.43953 0.0015337 3.62048C0.00378744 3.7998 0.1744 3.95611 0.418908 4.00289L3.83155 4.83723V7.966C3.83155 8.10279 3.92252 8.23159 4.07707 8.31365C4.24015 8.39855 4.45335 8.41824 4.64175 8.36579C8.46625 7.35746 12.6756 7.35746 16.5001 8.36579L16.721 8.40056C16.8457 8.39808 16.9661 8.36766 17.0648 8.31365C17.2354 8.23981 17.3381 8.10757 17.3348 7.966V4.81985L19.79 4.24624V7.82695C18.9764 8.06694 18.5917 8.72844 18.9307 9.30443C19.2696 9.88041 20.204 10.1528 21.0175 9.9128C21.8311 9.67278 22.2158 9.01131 21.8768 8.43532Z" fill="black"/>
</svg>
