<svg width="18" height="18" viewBox="0 0 26 26" fill="none" xmlns="http://www.w3.org/2000/svg">
<g clip-path="url(#clip0_289_1395)">
<path d="M15.4447 5.19238L1.68415 18.954C1.61482 19.0233 1.56499 19.111 1.54115 19.2053L0.0158189 25.3272C-0.0296811 25.5114 0.0244855 25.7074 0.158819 25.8418C0.260652 25.9436 0.399319 25.9999 0.541236 25.9999C0.584569 25.9999 0.628985 25.9945 0.672319 25.9837L6.79423 24.4584C6.88957 24.4345 6.97623 24.3847 7.04557 24.3154L20.8071 10.5549L15.4447 5.19238Z" fill="black"/>
<path d="M24.2173 3.31584L22.6855 1.78401C21.6618 0.760258 19.8775 0.761341 18.8548 1.78401L16.9785 3.66034L22.341 9.02285L24.2173 7.14651C24.7287 6.63518 25.0103 5.95484 25.0103 5.23118C25.0103 4.50751 24.7287 3.82718 24.2173 3.31584Z" fill="black"/>
</g>
<defs>
<clipPath id="clip0_289_1395">
<rect width="26" height="26" fill="white"/>
</clipPath>
</defs>
</svg>
