<svg width="5" height="5" viewBox="0 0 40 34" fill="none" xmlns="http://www.w3.org/2000/svg">
<path d="M22.2706 4.90891L22.2706 4.90888L22.2722 4.90651C23.9025 2.54575 26.6265 1 29.7089 1C34.6954 1 38.7373 5.04165 38.7373 10.0301C38.7373 11.206 38.5064 12.3266 38.0957 13.3596L38.0834 13.3906L38.0732 13.4223C36.7465 17.5391 33.0538 22.1417 29.1284 25.806C27.1807 27.6241 25.2122 29.177 23.5133 30.2916C22.6634 30.8492 21.8937 31.2886 21.2375 31.5962C20.6332 31.8796 20.1766 32.0263 19.8682 32.0751C19.5599 32.0263 19.1035 31.8796 18.4991 31.5963C17.843 31.2886 17.0733 30.8492 16.2234 30.2916C14.5244 29.177 12.5559 27.6241 10.6081 25.806C6.6826 22.1417 2.98995 17.5391 1.6642 13.4225L1.65399 13.3908L1.64169 13.3599C1.23085 12.3257 1 11.2058 1 10.0301C1 5.04165 5.04188 1 10.0284 1C13.1115 1 15.8339 2.54557 17.4651 4.90661L17.4667 4.90887L17.4669 4.90909L17.479 4.9266C17.4885 4.94015 17.5007 4.95713 17.5156 4.97706C17.5451 5.01681 17.5855 5.06884 17.6364 5.12904C17.7371 5.2482 17.8842 5.40607 18.0752 5.56549C18.4461 5.87515 19.0613 6.25481 19.8682 6.25481C20.6754 6.25481 21.2907 5.87536 21.6619 5.56562C21.8529 5.40619 22.0001 5.2483 22.1008 5.12911C22.1517 5.0689 22.1921 5.01685 22.2217 4.97709C22.2365 4.95716 22.2487 4.94017 22.2583 4.92662L22.2706 4.90891Z" fill="white" stroke="#FFC914" stroke-width="2"/>
</svg>
