<svg width="22" height="20" viewBox="0 0 26 26" fill="none" xmlns="http://www.w3.org/2000/svg">
<g clip-path="url(#clip0_138_1587)">
<path d="M22.8622 20.691C22.7858 20.6414 22.2106 20.2384 21.6346 19.0194C20.5769 16.7809 20.3549 13.6275 20.3549 11.3763C20.3549 11.3665 20.3547 11.3568 20.3543 11.347C20.3428 8.3718 18.5612 5.80704 16.0118 4.65629V2.89636C16.0118 1.29929 14.7146 0 13.1202 0H12.8806C11.2861 0 9.98899 1.29929 9.98899 2.89636V4.65618C7.43103 5.81064 5.64592 8.3885 5.64592 11.3763C5.64592 13.6275 5.4239 16.7808 4.36618 19.0194C3.79027 20.2384 3.21507 20.6413 3.13859 20.691C2.81654 20.84 2.65775 21.1843 2.73184 21.5332C2.80664 21.8856 3.136 22.1285 3.49569 22.1285H9.07893C9.11011 24.2685 10.8567 26 13.0004 26C15.1441 26 16.8907 24.2685 16.9219 22.1285H22.5051C22.8648 22.1285 23.1942 21.8856 23.269 21.5332C23.343 21.1843 23.1842 20.84 22.8622 20.691ZM11.5125 2.89636C11.5125 2.14068 12.1262 1.52593 12.8806 1.52593H13.1203C13.8747 1.52593 14.4884 2.14068 14.4884 2.89636V4.16168C14.0076 4.0623 13.5099 4.00999 13.0002 4.00999C12.4907 4.00999 11.9931 4.06225 11.5125 4.16152V2.89636H11.5125ZM13.0004 24.4741C11.6967 24.4741 10.6333 23.4271 10.6024 22.1286H15.3984C15.3675 23.4271 14.3041 24.4741 13.0004 24.4741ZM16.0676 20.6026C16.0675 20.6026 5.23165 20.6026 5.23165 20.6026C5.36342 20.3972 5.49754 20.1647 5.63084 19.9019C6.65174 17.8888 7.16941 15.0203 7.16941 11.3763C7.16941 8.15587 9.7851 5.53592 13.0002 5.53592C16.2152 5.53592 18.8309 8.15588 18.8309 11.3788C18.8309 11.3882 18.8311 11.3975 18.8314 11.4069C18.8343 15.0363 19.3519 17.8944 20.37 19.9019C20.5033 20.1647 20.6375 20.3972 20.7692 20.6026H16.0676Z" fill="black"/>
</g>
<defs>
<clipPath id="clip0_138_1587">
<rect width="26" height="26" fill="white"/>
</clipPath>
</defs>
</svg>
