<svg width="33" height="27" viewBox="0 0 33 27" fill="none" xmlns="http://www.w3.org/2000/svg">
<path d="M31.5221 13.5342L31.9226 14.5228C32.3268 14.359 32.5906 13.9656 32.5888 13.5296C32.5869 13.0933 32.3196 12.7023 31.9138 12.542L31.5221 13.5342ZM1.29934 1.59926L1.69112 0.607156C1.31855 0.460023 0.894966 0.534033 0.594365 0.798767C0.293748 1.06352 0.166809 1.47435 0.265662 1.86253L1.29934 1.59926ZM1.40567 25.7349L0.369786 25.4807C0.274217 25.8699 0.404789 26.2796 0.707706 26.5417C1.01076 26.8036 1.43499 26.8739 1.80611 26.7236L1.40567 25.7349ZM31.9138 12.542L1.69112 0.607156L0.907558 2.59137L31.1304 14.5264L31.9138 12.542ZM0.265662 1.86253L3.33579 13.9171L5.40314 13.3905L2.33301 1.336L0.265662 1.86253ZM3.33351 13.3997L0.369786 25.4807L2.44155 25.9892L5.40542 13.908L3.33351 13.3997ZM1.80611 26.7236L31.9226 14.5228L31.1215 12.5455L1.00522 24.7463L1.80611 26.7236ZM31.5173 12.4675L4.36476 12.5872L4.37416 14.7205L31.5269 14.6009L31.5173 12.4675Z" fill="black"/>
</svg>
