<svg width="17" height="21" viewBox="0 0 22 21" fill="none" xmlns="http://www.w3.org/2000/svg">
<path d="M4.34243 1.16831H8.35391C8.83356 1.16831 9.22239 1.56003 9.22239 2.04324C9.22239 2.48618 8.89566 2.85225 8.47176 2.91018L8.35391 2.91817H4.34243C2.96343 2.91817 1.83465 3.99743 1.74298 5.36324L1.73697 5.54295V16.6254C1.73697 18.0146 2.80829 19.1517 4.16404 19.2441L4.34243 19.2501H15.3441C16.7231 19.2501 17.8519 18.1709 17.9435 16.8051L17.9495 16.6254V16.0447C17.9495 15.5615 18.3384 15.1697 18.818 15.1697C19.2577 15.1697 19.6211 15.4989 19.6786 15.9259L19.6865 16.0447V16.6254C19.6865 18.9635 17.8658 20.8732 15.5747 20.9939L15.3441 21H4.34243C2.02153 21 0.125903 19.1657 0.00601918 16.8577L0 16.6254V5.54295C0 3.20484 1.82076 1.29515 4.1118 1.17438L4.34243 1.16831ZM13.3214 4.13642V0.87667C13.3214 0.148765 14.1398 -0.243299 14.6959 0.164831L14.7911 0.245255L21.7327 6.95303C22.0567 7.26607 22.0862 7.7689 21.8211 8.11649L21.7328 8.21576L14.7912 14.9257C14.2698 15.4297 13.4222 15.1061 13.3297 14.4193L13.3214 14.2944V11.0258L12.95 11.0186C9.8726 11.0094 7.24217 12.2821 5.00058 14.8697C4.42667 15.5322 3.35015 15.0235 3.48878 14.1554C4.44643 8.15879 7.65643 4.771 12.9718 4.17156L13.3214 4.13642Z" fill="#212121"/>
</svg>
