<svg width="26" height="26" viewBox="0 0 26 26" fill="none" xmlns="http://www.w3.org/2000/svg">
<path fill-rule="evenodd" clip-rule="evenodd" d="M12.4255 1.05048C12.7428 0.733175 13.2572 0.733175 13.5745 1.05048L17.8401 5.3161C18.1575 5.6334 18.1575 6.14785 17.8401 6.46515C17.5228 6.78245 17.0084 6.78245 16.6911 6.46515L13 2.77405L9.3089 6.46515C8.9916 6.78245 8.47715 6.78245 8.15985 6.46515C7.84255 6.14785 7.84255 5.6334 8.15985 5.3161L12.4255 1.05048Z" fill="black"/>
<path fill-rule="evenodd" clip-rule="evenodd" d="M13 0.8125C13.4487 0.8125 13.8125 1.17627 13.8125 1.625V13C13.8125 13.4487 13.4487 13.8125 13 13.8125C12.5513 13.8125 12.1875 13.4487 12.1875 13V1.625C12.1875 1.17627 12.5513 0.8125 13 0.8125Z" fill="black"/>
<path fill-rule="evenodd" clip-rule="evenodd" d="M4.53845 9.41345C4.8432 9.10871 5.25652 8.9375 5.6875 8.9375H8.125C8.57373 8.9375 8.9375 9.30127 8.9375 9.75C8.9375 10.1987 8.57373 10.5625 8.125 10.5625L5.6875 10.5625L5.6875 21.125H20.3125V10.5625H17.875C17.4263 10.5625 17.0625 10.1987 17.0625 9.75C17.0625 9.30127 17.4263 8.9375 17.875 8.9375H20.3125C20.7435 8.9375 21.1568 9.1087 21.4615 9.41345C21.7663 9.7182 21.9375 10.1315 21.9375 10.5625V21.125C21.9375 21.556 21.7663 21.9693 21.4615 22.274C21.1568 22.5788 20.7435 22.75 20.3125 22.75H5.6875C5.25652 22.75 4.8432 22.5788 4.53845 22.274C4.2337 21.9693 4.0625 21.556 4.0625 21.125V10.5625C4.0625 10.1315 4.23371 9.7182 4.53845 9.41345Z" fill="black"/>
</svg>
